<?xml version="1.0" encoding="UTF-8" standalone="no"?>
<svg
   viewBox="-25.8554 -59.8608 120.7589 122.0176"
   width="95.349701"
   height="96.343498"
   preserveAspectRatio="none"
   version="1.1"
   id="svg3"
   sodipodi:docname="config_logiciel.svg"
   xmlns:inkscape="http://www.inkscape.org/namespaces/inkscape"
   xmlns:sodipodi="http://sodipodi.sourceforge.net/DTD/sodipodi-0.dtd"
   xmlns="http://www.w3.org/2000/svg"
   xmlns:svg="http://www.w3.org/2000/svg"
   xmlns:bx="https://boxy-svg.com">
  <defs
     id="defs7" />
  <sodipodi:namedview
     id="namedview5"
     pagecolor="#ffffff"
     bordercolor="#000000"
     borderopacity="0.25"
     inkscape:showpageshadow="2"
     inkscape:pageopacity="0.0"
     inkscape:pagecheckerboard="0"
     inkscape:deskcolor="#d1d1d1"
     showgrid="false" />
  <path
     style="fill:#ff9100;stroke:#ff0000;stroke-width:2px;stroke-linecap:round;stroke-linejoin:round;stroke-miterlimit:8.05;stroke-dashoffset:-10px;paint-order:fill"
     d="m 30.474748,-59.855538 8.08858,-6.6e-4 3.549357,13.41219 a 48.193072,48.193072 0 0 1 6.216106,1.41839 l 9.015382,-10.54572 7.287827,3.50901 -2.62164,13.62404 a 48.193072,48.193072 0 0 1 4.985389,3.97489 l 12.698095,-5.58957 5.043657,6.32343 -8.27324,11.13732 a 48.193072,48.193072 0 0 1 2.766896,5.7444 l 13.865989,0.4735 1.800538,7.8856002 -12.286259,6.44472 a 48.193072,48.193072 0 0 1 5.25e-4,6.37602 l 12.287322,6.4426898 -1.799238,7.88591 -13.86591,0.47578 a 48.193072,48.193072 0 0 1 -2.765949,5.74485 l 8.275076,11.13596 -5.042614,6.32426 -12.699016,-5.58747 a 48.193072,48.193072 0 0 1 -4.984734,3.97571 l 2.623886,13.62361 -7.287248,3.51021 -9.017121,-10.54424 a 48.193072,48.193072 0 0 1 -6.215872,1.41942 l -3.547145,13.41278 -8.08858,6.7e-4 -3.549356,-13.4122 a 48.193072,48.193072 0 0 1 -6.216106,-1.41839 l -9.015382,10.54572 -7.2878276,-3.50901 2.6216394,-13.62404 A 48.193072,48.193072 0 0 1 2.052386,36.759362 l -12.698094,5.58956 -5.043658,-6.32343 8.2732399,-11.13732 a 48.193072,48.193072 0 0 1 -2.7668959,-5.7444 l -13.865988,-0.4735 -1.800539,-7.8856 12.286259,-6.4447198 a 48.193072,48.193072 0 0 1 -5.25e-4,-6.37602 l -12.287322,-6.44269 1.799238,-7.8859002 13.865911,-0.47579 a 48.193072,48.193072 0 0 1 2.7659479,-5.74485 l -8.2750759,-11.13596 5.042615,-6.32426 12.6990155,5.58747 a 48.193072,48.193072 0 0 1 4.9847333,-3.97571 l -2.6238858,-13.62361 7.287249,-3.5102 9.01712,10.54423 a 48.193072,48.193072 0 0 1 6.215872,-1.41942 z m 4.046855,31.11149 a 29.892027,29.892027 0 0 0 0.0049,59.78405 29.892027,29.892027 0 0 0 -0.0049,-59.78405"
     bx:shape="cog 754 438 136.914 220.738 279.415 0.41 14 1@174b8a3d"
     id="object-0" />
</svg>
